<svg version="1.2" xmlns="http://www.w3.org/2000/svg" viewBox="0 0 148 300" width="148" height="300">
	<style>
		.s0 { fill: #000000 }
		.s1 { fill: #ffffff }
	</style>
	<path id="Path 1" class="s0" d="m104.3 1c-1.2 0.4-2.6 1.4-3.1 2.1-0.5 0.8-23.3 66-50.6 144.9-27.3 78.9-49.6 144.5-49.6 145.8 0 1.2 1.2 3.1 2.8 4.2 2.5 1.9 4.1 2.1 20.5 2 12.1 0 18.5-0.4 20.2-1.3 1.4-0.6 3-2.3 3.6-3.7 0.6-1.4 23.4-66.6 50.6-145 39.5-113.9 49.3-143 48.6-145-0.4-1.3-1.9-3-3.3-3.7-1.8-0.9-7.7-1.3-20-1.2-9.6 0-18.5 0.4-19.7 0.9z"/>
	<path id="Path 2" class="s1" d="m99 50.8c-6.7 19.6-27.7 80.5-46.6 135.2-19 54.7-34.4 99.8-34.4 100.3 0 0.4 4.2 0.7 9.3 0.7 9.1 0.1 9.2 0.1 10.4-2.7 0.7-1.5 14.3-40.8 30.4-87.3 16-46.5 36.2-105.2 44.9-130.5 8.7-25.3 16.3-47.2 16.9-48.7l1.1-2.8h-19.8z"/>
</svg>
