<svg version="1.2" xmlns="http://www.w3.org/2000/svg" viewBox="0 0 142 196" width="142" height="196">
	<style>
		.s0 { fill: #000000 }
		.s1 { fill: #ffffff }
	</style>
	<path id="Path 1" class="s0" d="m80.5 33.1c-28 18.2-56.1 36.6-62.4 40.8-6.3 4.2-12.5 8.9-13.7 10.6-1.3 1.7-2.9 5.6-3.6 8.7-1.1 4.9-1.1 6.3 0.4 11 1.1 3.4 3.1 6.6 5.5 8.9 2.1 2 29.9 20.6 61.8 41.4 31.9 20.8 59.3 38.6 61 39.7 2.4 1.4 3.6 1.6 6.3 0.8 1.7-0.6 3.6-1.9 4.2-3 0.6-1.1 1-11 1-22.8 0.1-18.5-0.1-20.9-1.7-22.8-1-1.2-18.1-12.6-38.1-25.5-19.9-12.9-36.1-23.5-36-23.5 0.2-0.1 16.5-10.6 36.3-23.3 19.8-12.8 36.8-24.2 37.8-25.4 1.6-2 1.8-4.4 1.7-22.4v-20.3c-4.6-4.7-6.8-6-7.7-6-1 0-24.7 14.9-52.8 33.1z"/>
	<path id="Path 2" class="s1" d="m79.8 48.3c-24.6 16.1-44.7 29.4-44.7 29.7-0.1 0.3 3.8 2.9 8.4 5.8l8.5 5.2c32.2-20.6 48.8-31.3 57.7-37.1l16.2-10.4c0.1-17.4-0.2-22.5-0.6-22.4-0.5 0-20.9 13.2-45.5 29.2zm-61 40.2c-1.6 0.8-3.5 3-4.4 4.8-1 1.9-1.4 4.4-1 6.2 0.3 1.7 1.6 4 2.8 5.2 1.3 1.2 25.9 17.4 54.8 36 28.9 18.7 53.1 34.2 53.8 34.6 0.9 0.5 1.2-1.8 1.2-10.1l0.1-10.7c-78.7-51.8-102.3-67-103.1-67.2-0.8-0.1-2.7 0.4-4.2 1.2z"/>
</svg>
